<?xml version="1.0" standalone="no"?>
<!DOCTYPE svg PUBLIC "-//W3C//DTD SVG 20010904//EN"
 "http://www.w3.org/TR/2001/REC-SVG-20010904/DTD/svg10.dtd">
<svg version="1.0" xmlns="http://www.w3.org/2000/svg"
 width="1000.000000pt" height="1000.000000pt" viewBox="0 0 1000.000000 1000.000000"
 preserveAspectRatio="xMidYMid meet">
<metadata>
Created by potrace 1.11, written by Peter Selinger 2001-2013
</metadata>
<g transform="translate(0.000000,1000.000000) scale(0.100000,-0.100000)"
fill="#000000" stroke="none">
<path d="M4857 9684 c-1 -1 -60 -5 -132 -8 -71 -4 -139 -9 -150 -11 -11 -2
-54 -7 -95 -10 -66 -5 -136 -14 -235 -31 -16 -3 -43 -7 -60 -10 -159 -25 -422
-90 -593 -145 -104 -33 -341 -120 -407 -149 -22 -10 -78 -34 -125 -55 -336
-146 -730 -394 -1070 -675 -111 -91 -409 -380 -501 -486 -24 -28 -55 -64 -69
-80 -38 -44 -210 -264 -228 -293 -9 -15 -19 -28 -23 -31 -18 -15 -181 -273
-253 -400 -65 -115 -203 -401 -256 -530 -106 -259 -198 -563 -254 -840 -21
-107 -26 -130 -31 -175 -3 -22 -10 -67 -15 -100 -5 -33 -12 -85 -16 -115 -3
-30 -7 -65 -9 -78 -24 -153 -24 -713 1 -927 15 -135 36 -288 45 -335 95 -494
210 -846 404 -1245 176 -362 397 -701 653 -999 108 -125 371 -394 453 -461 33
-27 70 -59 82 -71 52 -49 218 -175 379 -289 538 -378 1280 -672 1933 -765 44
-6 91 -13 105 -15 14 -2 57 -7 95 -11 39 -3 81 -8 95 -10 209 -25 743 -20 950
11 19 3 58 8 85 11 28 3 57 7 65 9 8 1 35 6 60 10 25 3 59 9 75 11 268 42 749
181 962 279 17 8 34 15 37 15 11 0 94 39 271 126 324 159 628 358 935 612 104
86 410 384 485 472 239 279 392 490 534 735 28 50 56 97 61 105 6 8 52 101
104 205 93 190 166 360 226 530 80 227 180 638 205 845 3 25 8 56 11 70 2 14
7 48 9 75 3 28 7 66 10 85 24 175 24 796 0 922 -2 9 -7 48 -10 85 -4 37 -9 77
-11 88 -2 10 -6 37 -9 60 -16 115 -57 321 -86 435 -11 41 -21 82 -24 91 -9 39
-77 261 -101 329 -87 252 -304 714 -394 840 -11 15 -20 31 -20 34 0 18 -250
380 -336 486 -154 189 -478 529 -592 620 -24 19 -58 48 -75 64 -18 15 -48 40
-67 54 -19 15 -37 29 -40 32 -3 3 -34 27 -70 53 -36 27 -74 55 -85 64 -44 37
-338 225 -446 286 -132 75 -359 189 -359 180 0 -3 -6 -1 -12 5 -35 28 -374
157 -573 217 -112 34 -362 97 -430 109 -16 3 -70 12 -120 20 -218 38 -302 47
-530 62 -95 6 -414 12 -418 8z"/>
</g>
</svg>
